# xmcd
#
# Track frame offsets:
#	150
#	4839
#	27976
#	49808
#	64816
#	91565
#	116170
#	128577
#	143927
#	155043
#	165887
#	183693
#	201874
#	265415
#	294407
#	302764
#
# Disc length: 4254 seconds
#
# Revision: 1
# Processed by: cddbd v1.5.2PL0 Copyright (c) Steve Scherf et al.
# Submitted via: audiograbber 1.83.01
#
DISCID=e0109c10
DTITLE=Jim Messina - Live
DYEAR=1900
DGENRE=
TTITLE0=Intro
TTITLE1=Waiting For The Sun
TTITLE2=Thinking Of You
TTITLE3=Traveling Blues
TTITLE4=Carefree Country Day
TTITLE5=Kind Woman
TTITLE6=Child's Claim To Fame
TTITLE7=You Better Think Twice
TTITLE8=Listen To A Country Song
TTITLE9=Holiday Hotel
TTITLE10=Backtop Cowgirl
TTITLE11=She's Gotta Rock
TTITLE12=You Need A Man
TTITLE13=Sinners And Saints
TTITLE14=My Music
TTITLE15=Your Mama Don't Dance
EXTD=
EXTT0=
EXTT1=
EXTT2=
EXTT3=
EXTT4=
EXTT5=
EXTT6=
EXTT7=
EXTT8=
EXTT9=
EXTT10=
EXTT11=
EXTT12=
EXTT13=
EXTT14=
EXTT15=
PLAYORDER=
